<svg width="44" height="44" viewBox="0 0 44 44" fill="none" xmlns="http://www.w3.org/2000/svg">
<rect width="44" height="44" rx="12" fill="#FFA34C" fill-opacity="0.2"/>
<path d="M15.0001 21.2221L17.3334 13.4443H26.6667L28.2223 17.3332L29.0001 21.2221H32.8889L33.6667 23.5554L35.2223 29.7777H22.7778L22.0001 28.2221L25.1112 21.2221H20.4445L19.6667 21.9999L22.0001 28.9999V29.7777H8.77783V28.9999L11.1112 21.2221H15.0001Z" fill="#FFA34C"/>
<path d="M29.3947 20.1575L27.2168 13.6241C27.1239 13.3454 26.9456 13.103 26.7072 12.9312C26.4688 12.7594 26.1825 12.667 25.8887 12.667H18.1112C17.8174 12.667 17.531 12.7594 17.2926 12.9312C17.0543 13.103 16.876 13.3454 16.7831 13.6241L14.6047 20.1575C14.5068 20.4535 14.5115 20.774 14.6182 21.067H11.5783C11.2845 21.067 10.9981 21.1594 10.7598 21.3312C10.5214 21.503 10.3431 21.7454 10.2502 22.0241L8.07226 28.5575C8.00209 28.7679 7.98293 28.992 8.01634 29.2112C8.04976 29.4305 8.1348 29.6387 8.26445 29.8187C8.39411 29.9986 8.56467 30.1452 8.76208 30.2464C8.9595 30.3475 9.17812 30.4003 9.39993 30.4003H21.0666C21.4118 30.4014 21.7448 30.273 21.9999 30.0405C22.2551 30.2729 22.5881 30.4012 22.9333 30.4003H34.5999C34.8218 30.4003 35.0405 30.3476 35.2379 30.2465C35.4354 30.1454 35.606 29.9988 35.7357 29.8189C35.8654 29.6389 35.9505 29.4307 35.984 29.2113C36.0174 28.992 35.9982 28.7679 35.9281 28.5575L33.7506 22.0241C33.6576 21.7452 33.4792 21.5027 33.2406 21.3309C33.0021 21.1591 32.7155 21.0668 32.4215 21.067H29.3817C29.4882 20.7739 29.4928 20.4535 29.3947 20.1575ZM15.4904 20.4529L17.6683 13.9195C17.6993 13.8266 17.7587 13.7457 17.8382 13.6884C17.9177 13.6311 18.0132 13.6003 18.1112 13.6003H25.8887C25.9866 13.6003 26.0821 13.6311 26.1616 13.6884C26.2411 13.7457 26.3006 13.8266 26.3315 13.9195L28.509 20.4529C28.5323 20.523 28.5387 20.5976 28.5276 20.6707C28.5164 20.7438 28.4881 20.8131 28.4449 20.8731C28.4017 20.9331 28.3449 20.9819 28.2791 21.0156C28.2133 21.0493 28.1405 21.0669 28.0666 21.067H15.9333C15.8593 21.067 15.7864 21.0495 15.7206 21.0158C15.6548 20.9821 15.5979 20.9333 15.5546 20.8733C15.5114 20.8133 15.483 20.7439 15.4718 20.6708C15.4607 20.5977 15.467 20.523 15.4904 20.4529ZM21.4455 29.2729C21.4025 29.3332 21.3456 29.3823 21.2797 29.4161C21.2138 29.4499 21.1407 29.4673 21.0666 29.467H9.39993C9.32602 29.4669 9.25319 29.4493 9.18742 29.4156C9.12165 29.3819 9.06483 29.3331 9.02163 29.2731C8.97843 29.2131 8.95009 29.1438 8.93895 29.0707C8.92781 28.9976 8.93417 28.923 8.95753 28.8529L11.135 22.3195C11.166 22.2265 11.2255 22.1456 11.3051 22.0883C11.3847 22.031 11.4803 22.0002 11.5783 22.0003H18.8891C18.987 22.0004 19.0824 22.0313 19.1618 22.0885C19.2412 22.1458 19.3006 22.2266 19.3315 22.3195L21.509 28.8529C21.533 28.9229 21.5397 28.9977 21.5287 29.0709C21.5176 29.144 21.4891 29.213 21.4455 29.2729ZM20.2173 22.0246C20.2145 22.0162 20.2098 22.0087 20.207 22.0003H23.7924C23.7896 22.0087 23.7849 22.0157 23.7821 22.0241L21.9999 27.3726L20.2173 22.0246ZM32.4215 22.0003C32.5195 22.0003 32.615 22.0311 32.6945 22.0884C32.774 22.1457 32.8334 22.2266 32.8644 22.3195L35.0414 28.8529C35.0647 28.9229 35.0711 28.9975 35.06 29.0705C35.0489 29.1435 35.0207 29.2128 34.9776 29.2727C34.9345 29.3327 34.8778 29.3815 34.8121 29.4153C34.7465 29.4491 34.6738 29.4668 34.5999 29.467H22.9333C22.8594 29.4669 22.7865 29.4493 22.7208 29.4156C22.655 29.3819 22.5982 29.3331 22.555 29.2731C22.5118 29.2131 22.4834 29.1438 22.4723 29.0707C22.4611 28.9976 22.4675 28.923 22.4909 28.8529L24.6683 22.3195C24.6992 22.2267 24.7585 22.146 24.8378 22.0887C24.9171 22.0314 25.0124 22.0005 25.1103 22.0003H32.4215Z" fill="#453424"/>
</svg>
